<?xml version="1.0" encoding="UTF-8"?>
<svg id="Layer_2" data-name="Layer 2" xmlns="http://www.w3.org/2000/svg" viewBox="0 0 31.08 22.87">
  <defs>
    <style>
      .cls-1 {
        fill: #231f20;
      }
    </style>
  </defs>
  <g id="Layer_1-2" data-name="Layer 1">
    <path class="cls-1" d="M15.52,8.5c-.72-2.26-1.31-4.9-2.64-6.84-.04-.07-.17-.07.08.04.21.08.44-.09.47-.08-.03.1-.1.38-.14.64-.51,6.84.49,13.74,1.04,20.59,0,0-6,0-6,0,.68-6.37,1.24-12.81,2.59-19.12.36-1.13.66-3.82,2.36-3.59.57.18.66.45.8.63,1.15,2.49,1.13,5.09,1.44,7.73h0Z"/>
    <path class="cls-1" d="M15.52,8.5c-1.54-2.29-3.36-4.76-5.69-6.18-.55-.33-1.15-.51-1.59-.45-1.65.44-1.87,2.54-2.28,4.18-.84,5.47-.39,11.25.04,16.81,0,0-6,0-6,0,.28-2.94.55-5.87,1.02-8.81C1.91,9.58,2.3,4.68,5.55,1.01c4.69-3.8,8.4,4.06,9.97,7.49h0Z"/>
    <path class="cls-1" d="M15.52,8.5c.33-2.64.33-5.25,1.52-7.73.13-.17.26-.43.76-.61.27-.08.61-.03.83.09,1.16.83,1.25,2.27,1.63,3.45,1.39,6.32,1.94,12.78,2.62,19.16,0,0-6,0-6,0,.55-6.86,1.56-13.77,1-20.61-.04-.26-.12-.54-.15-.62.09.05.32.13.47.07-1,1.32-2.05,4.68-2.67,6.8h0Z"/>
    <path class="cls-1" d="M15.52,8.5c1.58-3.43,5.28-11.27,9.98-7.5,3.26,3.66,3.66,8.57,4.55,13.05.47,2.94.75,5.87,1.03,8.81h-6c.43-5.56.88-11.34.03-16.82-.42-1.64-.64-3.74-2.3-4.17-.44-.05-1.04.12-1.59.45-2.33,1.42-4.16,3.89-5.7,6.17h0Z"/>
  </g>
</svg>