<?xml version="1.0" encoding="UTF-8"?>
<svg id="Layer_2" data-name="Layer 2" xmlns="http://www.w3.org/2000/svg" viewBox="0 0 66.13 55.64">
  <defs>
    <style>
      .cls-1 {
        fill: #231f20;
      }
    </style>
  </defs>
  <g id="Layer_1-2" data-name="Layer 1">
    <g>
      <path class="cls-1" d="M21.05,2.41c-.24,10.39.04,20.78.84,31.13.1,1.35,1.07,2.5,2.5,2.5,1.27,0,2.6-1.15,2.5-2.5-.8-10.36-1.08-20.75-.84-31.13.07-3.22-4.93-3.22-5,0h0Z"/>
      <path class="cls-1" d="M38.39,2.42c-.43,10.1-.31,20.22.39,30.31.09,1.35,1.08,2.5,2.5,2.5,1.28,0,2.59-1.15,2.5-2.5-.69-10.09-.82-20.21-.39-30.31.14-3.22-4.86-3.21-5,0h0Z"/>
      <path class="cls-1" d="M.73,43.59c14.12,11.77,33.83,15.38,51.07,8.76,4.93-1.89,9.44-4.47,13.61-7.71,1.07-.83.87-2.66,0-3.54-1.05-1.05-2.47-.83-3.54,0-12.97,10.07-30.83,12.31-45.94,6.02-4.2-1.75-8.18-4.16-11.67-7.07-1.04-.86-2.52-1.02-3.54,0-.89.89-1.04,2.67,0,3.54h0Z"/>
    </g>
  </g>
</svg>