<?xml version="1.0" encoding="UTF-8"?>
<svg id="Layer_2" data-name="Layer 2" xmlns="http://www.w3.org/2000/svg" viewBox="0 0 34.04 34.04">
  <defs>
    <style>
      .cls-1 {
        fill: #e0e0e0;
      }
    </style>
  </defs>
  <g id="Layer_1-2" data-name="Layer 1">
    <g>
      <path class="cls-1" d="M20.41,12.92c-2.41-2.68-3.4-6.82-3.4-12.92,0,6.1-.99,10.24-3.4,12.92,2.34,1.34,4.45,1.34,6.79,0Z"/>
      <path class="cls-1" d="M21.12,13.62c-1.34,2.34-1.34,4.45,0,6.79,2.68-2.41,6.82-3.4,12.92-3.4-6.1,0-10.24-.99-12.92-3.4Z"/>
      <path class="cls-1" d="M13.62,21.12c2.41,2.68,3.4,6.82,3.4,12.92,0-6.1.99-10.24,3.4-12.92-2.34-1.34-4.45-1.34-6.79,0Z"/>
      <path class="cls-1" d="M12.92,13.62c-2.68,2.41-6.82,3.4-12.92,3.4,6.1,0,10.24.99,12.92,3.4,1.34-2.34,1.34-4.45,0-6.79Z"/>
    </g>
  </g>
</svg>